<mxfile host="app.diagrams.net" modified="2024-01-18T23:32:41.053Z" agent="Mozilla/5.0 (X11; Ubuntu; Linux x86_64; rv:121.0) Gecko/20100101 Firefox/121.0" etag="v4YGIFqpRoMTrpDXK4yi" version="22.1.21" type="device">
  <diagram name="Page-1" id="fkMnuOkQTYXnMKtS5THW">
    <mxGraphModel dx="491" dy="345" grid="1" gridSize="10" guides="1" tooltips="1" connect="1" arrows="1" fold="1" page="1" pageScale="1" pageWidth="827" pageHeight="1169" math="0" shadow="0">
      <root>
        <mxCell id="0" />
        <mxCell id="1" parent="0" />
        <mxCell id="rsrB3cpK6i1qU9jfniK0-21" value="" style="rounded=0;whiteSpace=wrap;html=1;fillColor=none;dashed=1;" vertex="1" parent="1">
          <mxGeometry x="150" y="130" width="230" height="220" as="geometry" />
        </mxCell>
        <mxCell id="rsrB3cpK6i1qU9jfniK0-5" value="" style="edgeStyle=orthogonalEdgeStyle;rounded=0;orthogonalLoop=1;jettySize=auto;html=1;" edge="1" parent="1" source="rsrB3cpK6i1qU9jfniK0-1" target="rsrB3cpK6i1qU9jfniK0-4">
          <mxGeometry relative="1" as="geometry" />
        </mxCell>
        <mxCell id="rsrB3cpK6i1qU9jfniK0-1" value="Données" style="shape=note;whiteSpace=wrap;html=1;backgroundOutline=1;darkOpacity=0.05;" vertex="1" parent="1">
          <mxGeometry x="70" y="120" width="60" height="80" as="geometry" />
        </mxCell>
        <mxCell id="rsrB3cpK6i1qU9jfniK0-9" value="" style="edgeStyle=orthogonalEdgeStyle;rounded=0;orthogonalLoop=1;jettySize=auto;html=1;" edge="1" parent="1" source="rsrB3cpK6i1qU9jfniK0-2" target="rsrB3cpK6i1qU9jfniK0-8">
          <mxGeometry relative="1" as="geometry" />
        </mxCell>
        <mxCell id="rsrB3cpK6i1qU9jfniK0-2" value="&lt;div&gt;&lt;font face=&quot;Courier New&quot;&gt;Données&lt;/font&gt;&lt;/div&gt;&lt;div&gt;&lt;font face=&quot;Courier New&quot;&gt;10011001&lt;br&gt;&lt;/font&gt;&lt;/div&gt;" style="rounded=0;whiteSpace=wrap;html=1;" vertex="1" parent="1">
          <mxGeometry x="280" y="145" width="81" height="30" as="geometry" />
        </mxCell>
        <mxCell id="rsrB3cpK6i1qU9jfniK0-3" value="PDF" style="text;html=1;strokeColor=none;fillColor=none;align=center;verticalAlign=middle;whiteSpace=wrap;rounded=0;" vertex="1" parent="1">
          <mxGeometry x="65" y="200" width="60" height="30" as="geometry" />
        </mxCell>
        <mxCell id="rsrB3cpK6i1qU9jfniK0-6" value="" style="edgeStyle=orthogonalEdgeStyle;rounded=0;orthogonalLoop=1;jettySize=auto;html=1;" edge="1" parent="1" source="rsrB3cpK6i1qU9jfniK0-4" target="rsrB3cpK6i1qU9jfniK0-2">
          <mxGeometry relative="1" as="geometry" />
        </mxCell>
        <mxCell id="rsrB3cpK6i1qU9jfniK0-4" value="Entrée" style="rounded=1;whiteSpace=wrap;html=1;fillColor=#fff2cc;strokeColor=#d6b656;" vertex="1" parent="1">
          <mxGeometry x="170" y="145" width="70" height="30" as="geometry" />
        </mxCell>
        <mxCell id="rsrB3cpK6i1qU9jfniK0-7" value="code binaire" style="text;html=1;strokeColor=none;fillColor=none;align=center;verticalAlign=middle;whiteSpace=wrap;rounded=0;" vertex="1" parent="1">
          <mxGeometry x="291" y="170" width="70" height="30" as="geometry" />
        </mxCell>
        <mxCell id="rsrB3cpK6i1qU9jfniK0-11" value="" style="edgeStyle=orthogonalEdgeStyle;rounded=0;orthogonalLoop=1;jettySize=auto;html=1;" edge="1" parent="1" source="rsrB3cpK6i1qU9jfniK0-8" target="rsrB3cpK6i1qU9jfniK0-10">
          <mxGeometry relative="1" as="geometry" />
        </mxCell>
        <mxCell id="rsrB3cpK6i1qU9jfniK0-8" value="Traitement" style="rhombus;whiteSpace=wrap;html=1;fillColor=#f5f5f5;strokeColor=#666666;fontColor=#333333;" vertex="1" parent="1">
          <mxGeometry x="280" y="210" width="80" height="60" as="geometry" />
        </mxCell>
        <mxCell id="rsrB3cpK6i1qU9jfniK0-13" value="" style="edgeStyle=orthogonalEdgeStyle;rounded=0;orthogonalLoop=1;jettySize=auto;html=1;" edge="1" parent="1" source="rsrB3cpK6i1qU9jfniK0-10" target="rsrB3cpK6i1qU9jfniK0-12">
          <mxGeometry relative="1" as="geometry" />
        </mxCell>
        <mxCell id="rsrB3cpK6i1qU9jfniK0-10" value="&lt;div&gt;&lt;font face=&quot;Courier New&quot;&gt;Résultats&lt;/font&gt;&lt;/div&gt;&lt;div&gt;&lt;font face=&quot;Courier New&quot;&gt;01100101&lt;br&gt;&lt;/font&gt;&lt;/div&gt;" style="rounded=0;whiteSpace=wrap;html=1;" vertex="1" parent="1">
          <mxGeometry x="280" y="300" width="81" height="30" as="geometry" />
        </mxCell>
        <mxCell id="rsrB3cpK6i1qU9jfniK0-18" value="" style="edgeStyle=orthogonalEdgeStyle;rounded=0;orthogonalLoop=1;jettySize=auto;html=1;" edge="1" parent="1" source="rsrB3cpK6i1qU9jfniK0-12" target="rsrB3cpK6i1qU9jfniK0-17">
          <mxGeometry relative="1" as="geometry" />
        </mxCell>
        <mxCell id="rsrB3cpK6i1qU9jfniK0-12" value="Sortie" style="rounded=1;whiteSpace=wrap;html=1;fillColor=#d5e8d4;strokeColor=#82b366;" vertex="1" parent="1">
          <mxGeometry x="170" y="300" width="70" height="30" as="geometry" />
        </mxCell>
        <mxCell id="rsrB3cpK6i1qU9jfniK0-17" value="Résultat" style="shape=note;whiteSpace=wrap;html=1;backgroundOutline=1;darkOpacity=0.05;" vertex="1" parent="1">
          <mxGeometry x="70" y="275" width="60" height="80" as="geometry" />
        </mxCell>
        <mxCell id="rsrB3cpK6i1qU9jfniK0-19" value="Texte océrisé" style="text;html=1;strokeColor=none;fillColor=none;align=center;verticalAlign=middle;whiteSpace=wrap;rounded=0;" vertex="1" parent="1">
          <mxGeometry x="61" y="354" width="80" height="25" as="geometry" />
        </mxCell>
      </root>
    </mxGraphModel>
  </diagram>
</mxfile>
